<svg width="60" height="60" viewBox="0 0 60 60" fill="none" xmlns="http://www.w3.org/2000/svg">
<rect x="3.5" y="3.5" width="53" height="53" rx="6.5" stroke="url(#paint0_linear_47_11)" stroke-width="7"/>
<path d="M41.2619 30C41.2619 36.5142 36.274 41.5 30.4761 41.5C24.6783 41.5 19.6904 36.5142 19.6904 30C19.6904 23.4858 24.6783 18.5 30.4761 18.5C36.274 18.5 41.2619 23.4858 41.2619 30Z" stroke="url(#paint1_linear_47_11)" stroke-width="7"/>
<path d="M49.0236 14.5C49.0236 16.1801 47.7324 17.5 46.1903 17.5C44.6482 17.5 43.3569 16.1801 43.3569 14.5C43.3569 12.8199 44.6482 11.5 46.1903 11.5C47.7324 11.5 49.0236 12.8199 49.0236 14.5Z" fill="url(#paint2_linear_47_11)" stroke="url(#paint3_linear_47_11)"/>
<defs>
<linearGradient id="paint0_linear_47_11" x1="30" y1="0" x2="30" y2="60" gradientUnits="userSpaceOnUse">
<stop stop-color="#E7A1AF"/>
<stop offset="1" stop-color="#CD576E"/>
</linearGradient>
<linearGradient id="paint1_linear_47_11" x1="30.4761" y1="15" x2="30.4761" y2="45" gradientUnits="userSpaceOnUse">
<stop stop-color="#E7A1AF"/>
<stop offset="1" stop-color="#CD576E"/>
</linearGradient>
<linearGradient id="paint2_linear_47_11" x1="46.1903" y1="11" x2="46.1903" y2="18" gradientUnits="userSpaceOnUse">
<stop stop-color="#E7A1AF"/>
<stop offset="1" stop-color="#CD576E"/>
</linearGradient>
<linearGradient id="paint3_linear_47_11" x1="46.1903" y1="11" x2="46.1903" y2="18" gradientUnits="userSpaceOnUse">
<stop stop-color="#E7A1AF"/>
<stop offset="1" stop-color="#CD576E"/>
</linearGradient>
</defs>
</svg>
