<svg width="241" height="45" viewBox="0 0 241 45" fill="none" xmlns="http://www.w3.org/2000/svg">
<path d="M1.46013 21.7253C0.929173 21.7253 0.521474 21.5056 0.237034 21.0662C-0.0474068 20.6267 -0.0758508 20.1598 0.151702 19.6654L8.14448 1.23595C8.42892 0.595089 8.89351 0.274656 9.53824 0.274656C10.2209 0.274656 10.6855 0.595089 10.932 1.23595L18.9532 19.7203C19.1618 20.233 19.1239 20.7 18.8394 21.1211C18.574 21.5239 18.1663 21.7253 17.6164 21.7253C17.3319 21.7253 17.057 21.6521 16.7915 21.5056C16.545 21.3408 16.3648 21.1211 16.251 20.8464L9.19691 3.92759H9.99335L2.82544 20.8464C2.6927 21.1394 2.4936 21.3591 2.22812 21.5056C1.9816 21.6521 1.72561 21.7253 1.46013 21.7253ZM2.96766 17.0012L4.10543 14.6392H15.2555L16.3933 17.0012H2.96766Z" fill="#AD6574"/>
<path d="M28.5558 21.8352C27.0767 21.8352 25.7398 21.5056 24.5452 20.8464C23.3695 20.169 22.4308 19.2534 21.7292 18.0999C21.0465 16.9463 20.7052 15.6463 20.7052 14.1997C20.7052 12.7532 21.0181 11.4623 21.6439 10.3271C22.2886 9.17353 23.1609 8.26717 24.2607 7.60799C25.3605 6.9305 26.6026 6.59176 27.9869 6.59176C29.1057 6.59176 30.1391 6.82064 31.0873 7.2784C32.0354 7.71785 32.8319 8.3221 33.4766 9.09114V1.67541C33.4766 1.25427 33.6093 0.915522 33.8748 0.659176C34.1592 0.40283 34.5101 0.274656 34.9272 0.274656C35.3634 0.274656 35.7142 0.40283 35.9797 0.659176C36.2451 0.915522 36.3779 1.25427 36.3779 1.67541V14.1997C36.3779 15.6463 36.0271 16.9463 35.3255 18.0999C34.6428 19.2534 33.7136 20.169 32.5379 20.8464C31.3622 21.5056 30.0349 21.8352 28.5558 21.8352ZM28.5558 19.3633C29.5229 19.3633 30.3857 19.1436 31.1442 18.7041C31.9027 18.2464 32.5 17.6238 32.9361 16.8365C33.3723 16.0491 33.5904 15.1702 33.5904 14.1997C33.5904 13.211 33.3723 12.3321 32.9361 11.563C32.5 10.794 31.9027 10.1898 31.1442 9.75031C30.3857 9.29255 29.5229 9.06367 28.5558 9.06367C27.6076 9.06367 26.7448 9.29255 25.9674 9.75031C25.2088 10.1898 24.602 10.794 24.1469 11.563C23.7108 12.3321 23.4927 13.211 23.4927 14.1997C23.4927 15.1702 23.7108 16.0491 24.1469 16.8365C24.602 17.6238 25.2088 18.2464 25.9674 18.7041C26.7448 19.1436 27.6076 19.3633 28.5558 19.3633Z" fill="#AD6574"/>
<path d="M42.8951 12.3321C42.8951 11.2335 43.1701 10.2538 43.72 9.39326C44.2889 8.51436 45.0474 7.81856 45.9955 7.30587C46.9437 6.79317 47.9866 6.53683 49.1244 6.53683C50.2621 6.53683 51.106 6.71993 51.6559 7.08614C52.2248 7.43404 52.4429 7.85518 52.3101 8.34956C52.2532 8.60591 52.1394 8.80732 51.9688 8.95381C51.8171 9.08198 51.6369 9.16438 51.4283 9.201C51.2198 9.23762 50.9922 9.22846 50.7457 9.17353C49.5321 8.9355 48.4417 8.91719 47.4746 9.1186C46.5075 9.32002 45.7395 9.69538 45.1707 10.2447C44.6207 10.794 44.3458 11.4898 44.3458 12.3321H42.8951ZM42.9236 21.7253C42.4685 21.7253 42.1177 21.6155 41.8711 21.3958C41.6246 21.1577 41.5014 20.8098 41.5014 20.3521V8.07491C41.5014 7.63546 41.6246 7.29671 41.8711 7.05868C42.1177 6.82064 42.4685 6.70162 42.9236 6.70162C43.3976 6.70162 43.7484 6.82064 43.976 7.05868C44.2225 7.2784 44.3458 7.61715 44.3458 8.07491V20.3521C44.3458 20.7915 44.2225 21.1303 43.976 21.3683C43.7484 21.6063 43.3976 21.7253 42.9236 21.7253Z" fill="#AD6574"/>
<path d="M57.0696 21.7253C56.6524 21.7253 56.3016 21.5972 56.0172 21.3408C55.7517 21.0662 55.6189 20.7274 55.6189 20.3246V8.10237C55.6189 7.68123 55.7517 7.34249 56.0172 7.08614C56.3016 6.82979 56.6524 6.70162 57.0696 6.70162C57.5057 6.70162 57.8566 6.82979 58.122 7.08614C58.3875 7.34249 58.5202 7.68123 58.5202 8.10237V20.3246C58.5202 20.7274 58.3875 21.0662 58.122 21.3408C57.8566 21.5972 57.5057 21.7253 57.0696 21.7253ZM57.0696 4.25718C56.5576 4.25718 56.112 4.08323 55.7327 3.73533C55.3724 3.36912 55.1923 2.93883 55.1923 2.44444C55.1923 1.95006 55.3724 1.52892 55.7327 1.18102C56.112 0.814815 56.5576 0.63171 57.0696 0.63171C57.5816 0.63171 58.0177 0.814815 58.378 1.18102C58.7573 1.52892 58.9469 1.95006 58.9469 2.44444C58.9469 2.93883 58.7573 3.36912 58.378 3.73533C58.0177 4.08323 57.5816 4.25718 57.0696 4.25718Z" fill="#AD6574"/>
<path d="M71.2279 21.8352C69.654 21.8352 68.2507 21.5148 67.0181 20.8739C65.8045 20.2147 64.8469 19.3175 64.1453 18.1823C63.4626 17.0287 63.1213 15.7104 63.1213 14.2272C63.1213 12.7258 63.4437 11.4074 64.0884 10.2722C64.7521 9.1186 65.6623 8.22139 66.819 7.58052C67.9758 6.92135 69.3031 6.59176 70.8012 6.59176C72.2803 6.59176 73.5508 6.91219 74.6127 7.55306C75.6746 8.17561 76.4805 9.04536 77.0304 10.1623C77.5993 11.2609 77.8838 12.5335 77.8838 13.98C77.8838 14.3279 77.7605 14.6209 77.514 14.8589C77.2675 15.0787 76.9546 15.1885 76.5753 15.1885H65.1124V12.9913H76.49L75.3238 13.7603C75.3048 12.8448 75.1152 12.03 74.7549 11.3159C74.3946 10.5834 73.8826 10.0067 73.2189 9.58552C72.5552 9.16438 71.7493 8.95381 70.8012 8.95381C69.7203 8.95381 68.7911 9.18269 68.0137 9.64045C67.2552 10.0982 66.6768 10.7299 66.2786 11.5356C65.8804 12.3229 65.6813 13.2201 65.6813 14.2272C65.6813 15.2343 65.9183 16.1315 66.3924 16.9189C66.8664 17.7062 67.5206 18.3288 68.355 18.7865C69.1894 19.2443 70.147 19.4732 71.2279 19.4732C71.8157 19.4732 72.413 19.3725 73.0198 19.171C73.6456 18.9513 74.1481 18.7041 74.5274 18.4295C74.8118 18.228 75.1152 18.1273 75.4376 18.1273C75.7789 18.109 76.0728 18.2006 76.3193 18.402C76.6417 18.6767 76.8124 18.9788 76.8313 19.3084C76.8503 19.638 76.6986 19.9218 76.3762 20.1598C75.7315 20.6542 74.9256 21.057 73.9585 21.3683C73.0104 21.6796 72.1001 21.8352 71.2279 21.8352Z" fill="#AD6574"/>
<path d="M85.2819 21.7253C84.4475 21.7253 83.708 21.5056 83.0632 21.0662C82.4185 20.6267 81.916 20.0316 81.5557 19.2809C81.1954 18.5119 81.0153 17.633 81.0153 16.6442V1.64794C81.0153 1.24511 81.148 0.915522 81.4135 0.659176C81.679 0.40283 82.0203 0.274656 82.4375 0.274656C82.8547 0.274656 83.196 0.40283 83.4615 0.659176C83.7269 0.915522 83.8597 1.24511 83.8597 1.64794V16.6442C83.8597 17.3217 83.9924 17.8801 84.2579 18.3196C84.5234 18.7591 84.8647 18.9788 85.2819 18.9788H85.993C86.3722 18.9788 86.6756 19.107 86.9032 19.3633C87.1497 19.6196 87.273 19.9492 87.273 20.3521C87.273 20.7549 87.0928 21.0845 86.7325 21.3408C86.3722 21.5972 85.9077 21.7253 85.3388 21.7253H85.2819Z" fill="#AD6574"/>
<path d="M96.5608 21.8352C94.9869 21.8352 93.5837 21.5148 92.3511 20.8739C91.1375 20.2147 90.1799 19.3175 89.4783 18.1823C88.7956 17.0287 88.4543 15.7104 88.4543 14.2272C88.4543 12.7258 88.7767 11.4074 89.4214 10.2722C90.0851 9.1186 90.9953 8.22139 92.152 7.58052C93.3087 6.92135 94.6361 6.59176 96.1342 6.59176C97.6133 6.59176 98.8838 6.91219 99.9457 7.55306C101.008 8.17561 101.814 9.04536 102.363 10.1623C102.932 11.2609 103.217 12.5335 103.217 13.98C103.217 14.3279 103.093 14.6209 102.847 14.8589C102.6 15.0787 102.288 15.1885 101.908 15.1885H90.4454V12.9913H101.823L100.657 13.7603C100.638 12.8448 100.448 12.03 100.088 11.3159C99.7276 10.5834 99.2156 10.0067 98.5519 9.58552C97.8882 9.16438 97.0823 8.95381 96.1342 8.95381C95.0533 8.95381 94.1241 9.18269 93.3467 9.64045C92.5882 10.0982 92.0098 10.7299 91.6116 11.5356C91.2134 12.3229 91.0143 13.2201 91.0143 14.2272C91.0143 15.2343 91.2513 16.1315 91.7254 16.9189C92.1994 17.7062 92.8536 18.3288 93.688 18.7865C94.5224 19.2443 95.48 19.4732 96.5608 19.4732C97.1487 19.4732 97.746 19.3725 98.3528 19.171C98.9786 18.9513 99.4811 18.7041 99.8604 18.4295C100.145 18.228 100.448 18.1273 100.771 18.1273C101.112 18.109 101.406 18.2006 101.652 18.402C101.975 18.6767 102.145 18.9788 102.164 19.3084C102.183 19.638 102.032 19.9218 101.709 20.1598C101.064 20.6542 100.259 21.057 99.2915 21.3683C98.3433 21.6796 97.4331 21.8352 96.5608 21.8352Z" fill="#AD6574"/>
<path d="M125.49 22C123.954 22 122.513 21.7253 121.167 21.176C119.839 20.6084 118.673 19.8302 117.668 18.8414C116.682 17.8344 115.905 16.6625 115.336 15.3258C114.786 13.9892 114.511 12.5427 114.511 10.9863C114.511 9.44819 114.786 8.01997 115.336 6.70162C115.905 5.36496 116.682 4.20225 117.668 3.21348C118.673 2.20641 119.839 1.41906 121.167 0.851435C122.494 0.283812 123.935 0 125.49 0C126.95 0 128.202 0.183104 129.245 0.549313C130.307 0.915521 131.369 1.51977 132.431 2.36205C132.582 2.47191 132.696 2.59093 132.772 2.7191C132.867 2.82896 132.924 2.94798 132.943 3.07615C132.98 3.18602 132.999 3.32334 132.999 3.48814C132.999 3.83604 132.867 4.129 132.601 4.36704C132.355 4.58677 132.051 4.71494 131.691 4.75156C131.331 4.76987 130.98 4.65085 130.639 4.39451C129.937 3.80857 129.207 3.35997 128.448 3.04869C127.709 2.73741 126.723 2.58177 125.49 2.58177C124.371 2.58177 123.319 2.8015 122.333 3.24095C121.347 3.6804 120.475 4.28464 119.716 5.05368C118.977 5.82272 118.398 6.71993 117.981 7.74532C117.564 8.75239 117.355 9.83271 117.355 10.9863C117.355 12.1581 117.564 13.2568 117.981 14.2821C118.398 15.2892 118.977 16.1773 119.716 16.9463C120.475 17.7154 121.347 18.3196 122.333 18.7591C123.319 19.1802 124.371 19.3908 125.49 19.3908C126.457 19.3908 127.368 19.2351 128.221 18.9238C129.093 18.5943 129.928 18.1457 130.724 17.578C131.065 17.34 131.397 17.2393 131.719 17.2759C132.061 17.2942 132.345 17.4224 132.573 17.6604C132.8 17.8801 132.914 18.1914 132.914 18.5943C132.914 18.7774 132.876 18.9605 132.8 19.1436C132.725 19.3084 132.611 19.464 132.459 19.6105C131.435 20.3978 130.335 20.9929 129.16 21.3958C128.003 21.7986 126.78 22 125.49 22Z" fill="#AD6574"/>
<path d="M142.708 21.8352C141.323 21.8352 140.081 21.5056 138.981 20.8464C137.882 20.169 137.009 19.2626 136.365 18.1273C135.739 16.9738 135.426 15.6737 135.426 14.2272C135.426 12.7807 135.767 11.4806 136.45 10.3271C137.151 9.17353 138.09 8.26717 139.266 7.60799C140.46 6.9305 141.797 6.59176 143.276 6.59176C144.756 6.59176 146.083 6.9305 147.259 7.60799C148.434 8.26717 149.363 9.17353 150.046 10.3271C150.748 11.4806 151.099 12.7807 151.099 14.2272H149.989C149.989 15.6737 149.667 16.9738 149.022 18.1273C148.396 19.2626 147.534 20.169 146.434 20.8464C145.334 21.5056 144.092 21.8352 142.708 21.8352ZM143.276 19.3633C144.244 19.3633 145.106 19.1436 145.865 18.7041C146.623 18.2464 147.221 17.633 147.657 16.8639C148.093 16.0766 148.311 15.1977 148.311 14.2272C148.311 13.2385 148.093 12.3596 147.657 11.5905C147.221 10.8032 146.623 10.1898 145.865 9.75031C145.106 9.29255 144.244 9.06367 143.276 9.06367C142.328 9.06367 141.465 9.29255 140.688 9.75031C139.93 10.1898 139.323 10.8032 138.868 11.5905C138.431 12.3596 138.213 13.2385 138.213 14.2272C138.213 15.1977 138.431 16.0766 138.868 16.8639C139.323 17.633 139.93 18.2464 140.688 18.7041C141.465 19.1436 142.328 19.3633 143.276 19.3633ZM149.648 21.7528C149.231 21.7528 148.88 21.6246 148.595 21.3683C148.33 21.0936 148.197 20.7549 148.197 20.3521V16.1498L148.738 13.2385L151.099 14.2272V20.3521C151.099 20.7549 150.956 21.0936 150.672 21.3683C150.406 21.6246 150.065 21.7528 149.648 21.7528Z" fill="#AD6574"/>
<path d="M159.818 21.6979C159.23 21.6979 158.775 21.3958 158.452 20.7915L152.422 8.51436C152.27 8.20308 152.251 7.90096 152.365 7.60799C152.498 7.29671 152.744 7.05868 153.105 6.89388C153.427 6.72909 153.749 6.70162 154.072 6.81148C154.413 6.92135 154.669 7.13192 154.84 7.44319L160.472 19.171H159.106L164.681 7.44319C164.852 7.13192 165.108 6.92135 165.449 6.81148C165.81 6.70162 166.17 6.72909 166.53 6.89388C166.872 7.04037 167.099 7.26925 167.213 7.58052C167.327 7.8918 167.308 8.20308 167.156 8.51436L161.126 20.7915C160.842 21.3958 160.405 21.6979 159.818 21.6979Z" fill="#AD6574"/>
<path d="M176.068 21.8352C174.684 21.8352 173.442 21.5056 172.342 20.8464C171.242 20.169 170.37 19.2626 169.725 18.1273C169.099 16.9738 168.787 15.6737 168.787 14.2272C168.787 12.7807 169.128 11.4806 169.811 10.3271C170.512 9.17353 171.451 8.26717 172.626 7.60799C173.821 6.9305 175.158 6.59176 176.637 6.59176C178.116 6.59176 179.444 6.9305 180.619 7.60799C181.795 8.26717 182.724 9.17353 183.407 10.3271C184.108 11.4806 184.459 12.7807 184.459 14.2272H183.35C183.35 15.6737 183.028 16.9738 182.383 18.1273C181.757 19.2626 180.894 20.169 179.794 20.8464C178.695 21.5056 177.452 21.8352 176.068 21.8352ZM176.637 19.3633C177.604 19.3633 178.467 19.1436 179.226 18.7041C179.984 18.2464 180.581 17.633 181.017 16.8639C181.454 16.0766 181.672 15.1977 181.672 14.2272C181.672 13.2385 181.454 12.3596 181.017 11.5905C180.581 10.8032 179.984 10.1898 179.226 9.75031C178.467 9.29255 177.604 9.06367 176.637 9.06367C175.689 9.06367 174.826 9.29255 174.049 9.75031C173.29 10.1898 172.683 10.8032 172.228 11.5905C171.792 12.3596 171.574 13.2385 171.574 14.2272C171.574 15.1977 171.792 16.0766 172.228 16.8639C172.683 17.633 173.29 18.2464 174.049 18.7041C174.826 19.1436 175.689 19.3633 176.637 19.3633ZM183.009 21.7528C182.591 21.7528 182.241 21.6246 181.956 21.3683C181.691 21.0936 181.558 20.7549 181.558 20.3521V16.1498L182.098 13.2385L184.459 14.2272V20.3521C184.459 20.7549 184.317 21.0936 184.033 21.3683C183.767 21.6246 183.426 21.7528 183.009 21.7528Z" fill="#AD6574"/>
<path d="M192.475 21.7253C191.641 21.7253 190.901 21.5056 190.256 21.0662C189.612 20.6267 189.109 20.0316 188.749 19.2809C188.388 18.5119 188.208 17.633 188.208 16.6442V1.64794C188.208 1.24511 188.341 0.915522 188.606 0.659176C188.872 0.40283 189.213 0.274656 189.63 0.274656C190.048 0.274656 190.389 0.40283 190.654 0.659176C190.92 0.915522 191.053 1.24511 191.053 1.64794V16.6442C191.053 17.3217 191.185 17.8801 191.451 18.3196C191.716 18.7591 192.058 18.9788 192.475 18.9788H193.186C193.565 18.9788 193.869 19.107 194.096 19.3633C194.343 19.6196 194.466 19.9492 194.466 20.3521C194.466 20.7549 194.286 21.0845 193.926 21.3408C193.565 21.5972 193.101 21.7253 192.532 21.7253H192.475Z" fill="#AD6574"/>
<path d="M199.04 21.7253C198.623 21.7253 198.272 21.5972 197.987 21.3408C197.722 21.0662 197.589 20.7274 197.589 20.3246V8.10237C197.589 7.68123 197.722 7.34249 197.987 7.08614C198.272 6.82979 198.623 6.70162 199.04 6.70162C199.476 6.70162 199.827 6.82979 200.092 7.08614C200.358 7.34249 200.491 7.68123 200.491 8.10237V20.3246C200.491 20.7274 200.358 21.0662 200.092 21.3408C199.827 21.5972 199.476 21.7253 199.04 21.7253ZM199.04 4.25718C198.528 4.25718 198.082 4.08323 197.703 3.73533C197.343 3.36912 197.163 2.93883 197.163 2.44444C197.163 1.95006 197.343 1.52892 197.703 1.18102C198.082 0.814815 198.528 0.63171 199.04 0.63171C199.552 0.63171 199.988 0.814815 200.348 1.18102C200.728 1.52892 200.917 1.95006 200.917 2.44444C200.917 2.93883 200.728 3.36912 200.348 3.73533C199.988 4.08323 199.552 4.25718 199.04 4.25718Z" fill="#AD6574"/>
<path d="M213.198 21.8352C211.624 21.8352 210.221 21.5148 208.988 20.8739C207.775 20.2147 206.817 19.3175 206.116 18.1823C205.433 17.0287 205.092 15.7104 205.092 14.2272C205.092 12.7258 205.414 11.4074 206.059 10.2722C206.722 9.1186 207.633 8.22139 208.789 7.58052C209.946 6.92135 211.273 6.59176 212.771 6.59176C214.251 6.59176 215.521 6.91219 216.583 7.55306C217.645 8.17561 218.451 9.04536 219.001 10.1623C219.57 11.2609 219.854 12.5335 219.854 13.98C219.854 14.3279 219.731 14.6209 219.484 14.8589C219.238 15.0787 218.925 15.1885 218.546 15.1885H207.083V12.9913H218.46L217.294 13.7603C217.275 12.8448 217.086 12.03 216.725 11.3159C216.365 10.5834 215.853 10.0067 215.189 9.58552C214.526 9.16438 213.72 8.95381 212.771 8.95381C211.691 8.95381 210.761 9.18269 209.984 9.64045C209.225 10.0982 208.647 10.7299 208.249 11.5356C207.851 12.3229 207.652 13.2201 207.652 14.2272C207.652 15.2343 207.889 16.1315 208.363 16.9189C208.837 17.7062 209.491 18.3288 210.325 18.7865C211.16 19.2443 212.117 19.4732 213.198 19.4732C213.786 19.4732 214.383 19.3725 214.99 19.171C215.616 18.9513 216.118 18.7041 216.498 18.4295C216.782 18.228 217.086 18.1273 217.408 18.1273C217.749 18.109 218.043 18.2006 218.29 18.402C218.612 18.6767 218.783 18.9788 218.802 19.3084C218.821 19.638 218.669 19.9218 218.347 20.1598C217.702 20.6542 216.896 21.057 215.929 21.3683C214.981 21.6796 214.07 21.8352 213.198 21.8352Z" fill="#AD6574"/>
<path d="M224.948 12.3321C224.948 11.2335 225.223 10.2538 225.773 9.39326C226.342 8.51436 227.1 7.81856 228.049 7.30587C228.997 6.79317 230.04 6.53683 231.177 6.53683C232.315 6.53683 233.159 6.71993 233.709 7.08614C234.278 7.43404 234.496 7.85518 234.363 8.34956C234.306 8.60591 234.193 8.80732 234.022 8.95381C233.87 9.08198 233.69 9.16438 233.481 9.201C233.273 9.23762 233.045 9.22846 232.799 9.17353C231.585 8.9355 230.495 8.91719 229.528 9.1186C228.561 9.32002 227.793 9.69538 227.224 10.2447C226.674 10.794 226.399 11.4898 226.399 12.3321H224.948ZM224.977 21.7253C224.522 21.7253 224.171 21.6155 223.924 21.3958C223.678 21.1577 223.554 20.8098 223.554 20.3521V8.07491C223.554 7.63546 223.678 7.29671 223.924 7.05868C224.171 6.82064 224.522 6.70162 224.977 6.70162C225.451 6.70162 225.802 6.82064 226.029 7.05868C226.276 7.2784 226.399 7.61715 226.399 8.07491V20.3521C226.399 20.7915 226.276 21.1303 226.029 21.3683C225.802 21.6063 225.451 21.7253 224.977 21.7253Z" fill="#AD6574"/>
<path d="M239.123 21.7253C238.706 21.7253 238.355 21.5972 238.07 21.3408C237.805 21.0662 237.672 20.7274 237.672 20.3246V8.10237C237.672 7.68123 237.805 7.34249 238.07 7.08614C238.355 6.82979 238.706 6.70162 239.123 6.70162C239.559 6.70162 239.91 6.82979 240.175 7.08614C240.441 7.34249 240.573 7.68123 240.573 8.10237V20.3246C240.573 20.7274 240.441 21.0662 240.175 21.3408C239.91 21.5972 239.559 21.7253 239.123 21.7253ZM239.123 4.25718C238.611 4.25718 238.165 4.08323 237.786 3.73533C237.426 3.36912 237.245 2.93883 237.245 2.44444C237.245 1.95006 237.426 1.52892 237.786 1.18102C238.165 0.814815 238.611 0.63171 239.123 0.63171C239.635 0.63171 240.071 0.814815 240.431 1.18102C240.81 1.52892 241 1.95006 241 2.44444C241 2.93883 240.81 3.36912 240.431 3.73533C240.071 4.08323 239.635 4.25718 239.123 4.25718Z" fill="#AD6574"/>
<path d="M78.7404 44.6989C78.5379 44.6989 78.3607 44.6299 78.2088 44.4918C78.0696 44.3413 78 44.1656 78 43.9649V30.734C78 30.5207 78.0696 30.345 78.2088 30.207C78.3607 30.069 78.5379 30 78.7404 30C79.0441 30 79.2656 30.1255 79.4048 30.3764L85.8023 42.9862H85.1569L91.4405 30.3764C91.5924 30.1255 91.8139 30 92.105 30C92.3075 30 92.4783 30.069 92.6175 30.207C92.7567 30.345 92.8263 30.5207 92.8263 30.734V43.9649C92.8263 44.1656 92.7567 44.3413 92.6175 44.4918C92.4783 44.6299 92.3075 44.6989 92.105 44.6989C91.8898 44.6989 91.7063 44.6299 91.5544 44.4918C91.4152 44.3413 91.3456 44.1656 91.3456 43.9649V32.6349L91.6683 32.6537L86.0681 44.0025C85.9289 44.2409 85.7138 44.3601 85.4227 44.3601C85.1063 44.3601 84.8785 44.2095 84.7393 43.9084L79.1011 32.729L79.4807 32.6349V43.9649C79.4807 44.1656 79.4048 44.3413 79.2529 44.4918C79.1137 44.6299 78.9429 44.6989 78.7404 44.6989Z" fill="#AD6574"/>
<path d="M95.8153 44.6989C95.5242 44.6989 95.3153 44.5797 95.1888 44.3413C95.0622 44.1029 95.0496 43.8708 95.1508 43.6449L100.732 30.5082C100.871 30.1694 101.112 30 101.453 30C101.782 30 102.017 30.1694 102.156 30.5082L107.756 43.6637C107.87 43.9021 107.851 44.1343 107.699 44.3601C107.56 44.5859 107.357 44.6989 107.092 44.6989C106.94 44.6989 106.801 44.6612 106.674 44.5859C106.56 44.5107 106.465 44.3977 106.389 44.2472L101.169 31.6939H101.757L96.4987 44.2472C96.4354 44.3977 96.3405 44.5107 96.2139 44.5859C96.1 44.6612 95.9671 44.6989 95.8153 44.6989ZM97.0682 41.1982L97.6377 39.9373H105.345L105.915 41.1982H97.0682Z" fill="#AD6574"/>
<path d="M110.72 44.6989C110.517 44.6989 110.34 44.6299 110.188 44.4918C110.049 44.3413 109.98 44.1656 109.98 43.9649V30.734C109.98 30.5332 110.049 30.3639 110.188 30.2258C110.34 30.0753 110.517 30 110.72 30C110.922 30 111.093 30.0753 111.232 30.2258C111.384 30.3639 111.46 30.5332 111.46 30.734V37.133L118.389 30.2635C118.491 30.1631 118.586 30.0941 118.674 30.0565C118.763 30.0188 118.864 30 118.978 30C119.206 30 119.377 30.069 119.49 30.207C119.604 30.345 119.655 30.5144 119.642 30.7152C119.642 30.9034 119.566 31.0853 119.414 31.261L114.213 36.4178L119.471 43.532C119.585 43.6951 119.63 43.8708 119.604 44.059C119.592 44.2346 119.522 44.3852 119.396 44.5107C119.269 44.6361 119.117 44.6989 118.94 44.6989C118.661 44.6989 118.453 44.5922 118.313 44.3789L113.15 37.4529L111.46 39.1468V43.9649C111.46 44.1656 111.384 44.3413 111.232 44.4918C111.093 44.6299 110.922 44.6989 110.72 44.6989Z" fill="#AD6574"/>
<path d="M123.159 44.6989C122.944 44.6989 122.767 44.6299 122.628 44.4918C122.489 44.3538 122.419 44.1782 122.419 43.9649V30.734C122.419 30.5207 122.489 30.345 122.628 30.207C122.767 30.069 122.944 30 123.159 30H132.063C132.265 30 132.436 30.069 132.575 30.207C132.727 30.3325 132.803 30.5019 132.803 30.7152C132.803 30.9034 132.727 31.0665 132.575 31.2045C132.436 31.3425 132.265 31.4115 132.063 31.4115H123.9V36.606H129.842C130.057 36.606 130.234 36.675 130.373 36.813C130.513 36.9511 130.582 37.1205 130.582 37.3212C130.582 37.522 130.513 37.6913 130.373 37.8294C130.234 37.9674 130.057 38.0364 129.842 38.0364H123.9V43.2873H132.063C132.265 43.2873 132.436 43.3563 132.575 43.4944C132.727 43.6324 132.803 43.7955 132.803 43.9837C132.803 44.197 132.727 44.3726 132.575 44.5107C132.436 44.6361 132.265 44.6989 132.063 44.6989H123.159Z" fill="#AD6574"/>
<path d="M147.029 45C145.877 45 144.852 44.7804 143.953 44.3413C143.068 43.9021 142.371 43.2936 141.865 42.5157C141.372 41.7378 141.125 40.8469 141.125 39.8432V30.734C141.125 30.5207 141.194 30.345 141.334 30.207C141.473 30.069 141.65 30 141.865 30C142.08 30 142.258 30.069 142.397 30.207C142.536 30.345 142.606 30.5207 142.606 30.734V39.8432C142.606 40.5834 142.789 41.2359 143.156 41.8005C143.536 42.3651 144.061 42.8105 144.732 43.1368C145.403 43.4504 146.168 43.6073 147.029 43.6073C147.877 43.6073 148.63 43.4504 149.288 43.1368C149.946 42.8105 150.459 42.3651 150.826 41.8005C151.205 41.2359 151.395 40.5834 151.395 39.8432V30.734C151.395 30.5207 151.465 30.345 151.604 30.207C151.743 30.069 151.92 30 152.135 30C152.363 30 152.54 30.069 152.667 30.207C152.806 30.345 152.876 30.5207 152.876 30.734V39.8432C152.876 40.8469 152.623 41.7378 152.116 42.5157C151.623 43.2936 150.933 43.9021 150.047 44.3413C149.174 44.7804 148.168 45 147.029 45Z" fill="#AD6574"/>
<path d="M157.419 44.6989C157.204 44.6989 157.027 44.6299 156.888 44.4918C156.749 44.3538 156.679 44.1782 156.679 43.9649V30.734C156.679 30.5207 156.749 30.345 156.888 30.207C157.027 30.069 157.204 30 157.419 30H161.216C162.153 30 162.982 30.207 163.703 30.6211C164.424 31.0226 164.988 31.5809 165.393 32.2961C165.798 33.0113 166 33.8394 166 34.7804C166 35.6964 165.798 36.5119 165.393 37.2271C164.988 37.9297 164.424 38.4881 163.703 38.9021C162.982 39.3036 162.153 39.5044 161.216 39.5044H158.16V43.9649C158.16 44.1782 158.09 44.3538 157.951 44.4918C157.812 44.6299 157.634 44.6989 157.419 44.6989ZM158.16 38.0928H161.216C161.862 38.0928 162.437 37.9548 162.944 37.6788C163.45 37.3902 163.842 36.995 164.121 36.4931C164.412 35.9912 164.557 35.4203 164.557 34.7804C164.557 34.1154 164.412 33.532 164.121 33.0301C163.842 32.5282 163.45 32.133 162.944 31.8444C162.437 31.5558 161.862 31.4115 161.216 31.4115H158.16V38.0928Z" fill="#AD6574"/>
</svg>
